<svg width="277" height="57" viewBox="0 0 277 57" fill="none" xmlns="http://www.w3.org/2000/svg">
<g clip-path="url(#clip0_4729_18)">
<path d="M205.205 14.1003H205.126L198.36 35.217H211.812L205.205 14.1003ZM218.34 55.1381L214.996 44.2218H195.494L191.752 55.1381H180.051L197.605 5.90493C198.391 3.69954 200.478 2.22699 202.817 2.22699H211.732L230.359 55.1381H218.34Z" fill="#A60064"/>
<path d="M256.15 26.9294C259.335 26.9294 261.629 26.2122 263.037 24.778C264.442 23.3438 265.145 21.4316 265.145 19.0402C265.145 16.8096 264.442 14.9768 263.037 13.5425C261.629 12.1083 259.335 11.3911 256.15 11.3911H245.643V26.9294H256.15ZM234.578 55.138V7.73917C234.578 4.69496 237.042 2.22705 240.084 2.22705H257.902C260.501 2.22705 262.837 2.66525 264.906 3.54235C266.976 4.41877 268.753 5.64111 270.24 7.20731C271.726 8.77487 272.868 10.594 273.663 12.6661C274.46 14.7376 274.857 16.969 274.857 19.3596C274.857 21.7502 274.46 23.9686 273.663 26.0133C272.868 28.0588 271.726 29.8116 270.24 31.2725C268.753 32.7341 266.976 33.8765 264.906 34.6988C262.837 35.5233 260.501 35.9335 257.902 35.9335H245.643V55.138H234.578Z" fill="#A60064"/>
<path d="M0 55.138V7.81703C0 4.77417 2.46468 2.30695 5.50438 2.30695H38.8463V11.4703H10.7465V22.7858H36.6172V32.1084H10.7465V45.7353H40.1199V55.138H0Z" fill="#F6B436"/>
<path d="M55.085 11.3908V25.4155H68.9354C71.9608 25.4155 74.0704 24.7558 75.2641 23.4344C76.4578 22.115 77.0554 20.4496 77.0554 18.4431C77.0554 16.3833 76.4578 14.6927 75.2641 13.372C74.0704 12.0519 72.0918 11.3908 69.3336 11.3908H55.085ZM80.636 55.1385C77.6032 55.1385 75.1446 52.6767 75.1446 49.6414V41.5124C75.1446 38.9624 74.56 37.1426 73.3936 36.0535C72.2257 34.9652 70.05 34.4203 66.8661 34.4203H55.085V55.1385H44.3385V7.70537C44.3385 4.68029 46.7888 2.22742 49.8107 2.22742H71.1645C73.6046 2.22742 75.8214 2.61162 77.8115 3.38139C79.8008 4.15116 81.5128 5.21148 82.9457 6.5637C84.3792 7.91593 85.4793 9.53477 86.2496 11.4175C87.0179 13.3009 87.4032 15.3305 87.4032 17.5038C87.4032 20.369 86.7271 22.9019 85.3741 25.1031C84.0199 27.3044 82.0701 28.8556 79.5228 29.7572C81.9104 30.5017 83.5829 31.6455 84.5376 33.1884C85.493 34.7327 85.971 37.0475 85.971 40.1321V55.1385H80.636Z" fill="#F6B436"/>
<path d="M113.911 26.9294C117.095 26.9294 119.39 26.2122 120.797 24.778C122.202 23.3438 122.906 21.4316 122.906 19.0402C122.906 16.8096 122.202 14.9768 120.797 13.5425C119.39 12.1083 117.095 11.3911 113.911 11.3911H103.403V26.9294H113.911ZM92.3384 55.138V7.76241C92.3384 4.70522 94.8146 2.22705 97.8681 2.22705H115.662C118.262 2.22705 120.598 2.66525 122.667 3.54235C124.737 4.41877 126.514 5.64111 128.001 7.20731C129.486 8.77487 130.628 10.594 131.424 12.6661C132.22 14.7376 132.618 16.969 132.618 19.3596C132.618 21.7502 132.22 23.9686 131.424 26.0133C130.628 28.0588 129.486 29.8116 128.001 31.2725C126.514 32.7341 124.737 33.8765 122.667 34.6988C120.598 35.5233 118.262 35.9335 115.662 35.9335H103.403V55.138H92.3384Z" fill="#F6B436"/>
<path d="M153.782 26.6902V30.0127C153.782 33.063 156.252 35.5357 159.3 35.5357H165.483C165.483 37.1825 165.15 38.7371 164.486 40.1967C163.82 41.659 162.902 42.9462 161.731 44.062C160.56 45.177 159.189 46.0541 157.619 46.6912C156.05 47.3291 154.36 47.6477 152.55 47.6477C149.996 47.6477 147.786 47.0898 145.924 45.9741C144.062 44.8591 142.531 43.4118 141.334 41.6316C140.137 39.8522 139.258 37.8601 138.7 35.6553C138.141 33.4513 137.862 31.2596 137.862 29.0809C137.862 22.706 139.19 17.8728 141.849 14.5783C144.508 11.2846 148.098 9.63772 152.62 9.63772C154.162 9.63772 155.623 9.87698 157.006 10.3548C158.389 10.8327 159.611 11.4705 160.676 12.267C161.738 13.0641 162.618 14.0082 163.309 15.0965C163.999 16.1856 164.425 17.3409 164.584 18.5625H175.753C175.539 15.96 174.809 13.5426 173.563 11.3112C172.317 9.07986 170.671 7.16707 168.627 5.57353C166.584 3.97998 164.197 2.73235 161.464 1.82859C158.731 0.92551 155.798 0.473633 152.668 0.473633C148.368 0.473633 144.601 1.20511 141.364 2.66535C138.145 4.11875 135.452 6.11017 133.282 8.63961C133.791 9.5297 134.236 10.4629 134.61 11.4384C135.554 13.8933 136.033 16.5587 136.033 19.359C136.033 22.1659 135.552 24.8226 134.605 27.2535C133.638 29.7412 132.22 31.9145 130.394 33.7105C129.5 34.5883 128.516 35.375 127.45 36.0642C127.687 37.1341 127.969 38.1936 128.309 39.241C129.424 42.6674 131.029 45.6952 133.125 48.3251C135.221 50.9551 137.743 53.0537 140.687 54.62C143.633 56.1861 146.937 56.9703 150.598 56.9703C154.26 56.9703 157.496 56.3455 160.31 55.0978C163.123 53.8509 165.166 52.1097 166.439 49.8784V49.8947C166.573 52.8281 168.987 55.1381 171.921 55.1381H175.832V26.6902H153.782Z" fill="#A60064"/>
</g>
<defs>
<clipPath id="clip0_4729_18">
<rect width="276.021" height="56.9703" fill="white"/>
</clipPath>
</defs>
</svg>
